<svg xmlns="http://www.w3.org/2000/svg" viewBox="0 0 30 30" width="30" height="30" fill="#57D9FF">
<path d="M25.980469 2.9902344A1.0001 1.0001 0 0 0 25.869141 3L20 3A1.0001 1.0001 0 1 0 20 5L23.585938 5L13.292969 15.292969A1.0001 1.0001 0 1 0 14.707031 16.707031L25 6.4140625L25 10A1.0001 1.0001 0 1 0 27 10L27 4.1269531A1.0001 1.0001 0 0 0 25.980469 2.9902344ZM6 7C4.9069372 7 4 7.9069372 4 9L4 24C4 25.093063 4.9069372 26 6 26L21 26C22.093063 26 23 25.093063 23 24L23 14L23 11.421875L21 13.421875L21 16L21 24L6 24L6 9L14 9L16 9L16.578125 9L18.578125 7L16 7L14 7L6 7Z"/>
</svg>
